<svg xmlns="http://www.w3.org/2000/svg" xmlns:xlink="http://www.w3.org/1999/xlink" viewBox="0 0 66.23 133.4"><defs><style>.cls-1{fill:none;}.cls-2{isolation:isolate;}.cls-3{clip-path:url(#clip-path);}.cls-4{fill:#beb2b1;}.cls-5{fill:#beb3b0;}.cls-6{fill:#bfb4b0;}.cls-7{fill:#c0b5af;}.cls-8{fill:#c1b6af;}.cls-9{fill:#c2b7ae;}.cls-10{fill:#c3b8ae;}.cls-11{fill:#c6b9ad;}.cls-12{fill:#c7baad;}.cls-13{fill:#c7bcac;}.cls-14{fill:#c8bdac;}.cls-15{fill:#c9beab;}.cls-16{fill:#cabfab;}.cls-17{fill:#cbc0a9;}.cls-18{fill:#ccc1a9;}.cls-19{fill:#cdc2a8;}.cls-20{fill:#cec3a8;}.cls-21{fill:#cfc4a7;}.cls-22{fill:#d0c5a7;}.cls-23{fill:#d1c6a6;}.cls-24{fill:#d2c7a6;}.cls-25{fill:#d3c8a5;}.cls-26{fill:#d4c9a5;}.cls-27{fill:#d7caa4;}.cls-28{fill:#d8cba4;}.cls-29{fill:#d8cca3;}.cls-30{fill:#d9cda2;}.cls-31{fill:#dacea1;}.cls-32{fill:#dbcfa1;}.cls-33{fill:#dcd0a0;}.cls-34{fill:#ddd1a0;}.cls-35{fill:#ded29f;}.cls-36{fill:#dfd39f;}.cls-37{fill:#e0d49e;}.cls-38{fill:#e1d59e;}.cls-39{fill:#e2d69d;}.cls-40{fill:#e3d79d;}.cls-41{fill:#e4d89b;}.cls-42{fill:#e5d99b;}.cls-43{fill:#e6da9a;}.cls-44{fill:#e7db9a;}.cls-45{fill:#e8dc99;}.cls-46{fill:#e9dd99;}.cls-47{fill:#eade98;}.cls-48{fill:#ebdf98;}.cls-49{fill:#ece098;}.cls-50{fill:#ede196;}.cls-51{fill:#eee296;}.cls-52{fill:#efe395;}.cls-53{fill:#f0e495;}.cls-54{fill:#f1e594;}.cls-55{fill:#f2e694;}.cls-56{fill:#f3e793;}.cls-57{fill:#f4e893;}.cls-58{fill:#f5e991;}.cls-59{fill:#f6ea91;}.cls-60{fill:#f7eb90;}.cls-61{fill:#f8ec90;}.cls-62{fill:#f9ed8f;}.cls-63{fill:#faee8f;}.cls-64{fill:#fbee8f;}.cls-65{fill:#faef8e;}.cls-66{fill:#fcef8e;}.cls-67{fill:#fdf08c;}.cls-68{fill:#fdf18c;}.cls-69{fill:url(#Áåçûìÿííûé_ãðàäèåíò_71);}.cls-70,.cls-75{fill:#fdf71e;}.cls-71{fill:#f56119;}.cls-72{fill:url(#Áåçûìÿííûé_ãðàäèåíò_71-2);}.cls-73{fill:url(#Áåçûìÿííûé_ãðàäèåíò_71-3);}.cls-74{fill:url(#Áåçûìÿííûé_ãðàäèåíò_71-4);}.cls-75{fill-rule:evenodd;}.cls-76{fill:url(#Áåçûìÿííûé_ãðàäèåíò_3);}.cls-77{mix-blend-mode:multiply;opacity:0.3;fill:url(#Áåçûìÿííûé_ãðàäèåíò_2);}.cls-78{fill:#d0005a;}.cls-79{fill:#fdbd7c;mix-blend-mode:soft-light;}</style><clipPath id="clip-path"><polygon class="cls-1" points="27.74 52.49 30.11 65.52 37.5 65.52 39.05 51.85 27.74 52.49"/></clipPath><radialGradient id="Áåçûìÿííûé_ãðàäèåíò_71" cx="-12411.82" cy="70.17" r="18.47" gradientTransform="translate(12445.57)" gradientUnits="userSpaceOnUse"><stop offset="0" stop-color="#fcca1c"/><stop offset="0.79" stop-color="#fc6831"/><stop offset="0.98" stop-color="#fda732"/></radialGradient><radialGradient id="Áåçûìÿííûé_ãðàäèåíò_71-2" cx="25.08" cy="77.64" r="47.3" gradientTransform="matrix(1, 0, 0, 1, 0, 0)" xlink:href="#Áåçûìÿííûé_ãðàäèåíò_71"/><radialGradient id="Áåçûìÿííûé_ãðàäèåíò_71-3" cx="29.86" cy="115.66" r="3.7" gradientTransform="matrix(1, 0, 0, 1, 0, 0)" xlink:href="#Áåçûìÿííûé_ãðàäèåíò_71"/><radialGradient id="Áåçûìÿííûé_ãðàäèåíò_71-4" cx="-13356.85" cy="-1799.58" r="7.57" gradientTransform="translate(13458.18 -997.39) rotate(-12.32)" xlink:href="#Áåçûìÿííûé_ãðàäèåíò_71"/><radialGradient id="Áåçûìÿííûé_ãðàäèåíò_3" cx="570.83" cy="25.44" r="40.75" gradientTransform="translate(-523.76)" gradientUnits="userSpaceOnUse"><stop offset="0" stop-color="#fff9b5"/><stop offset="1" stop-color="#fcd2de"/></radialGradient><linearGradient id="Áåçûìÿííûé_ãðàäèåíò_2" x1="34.15" y1="2.52" x2="34.48" y2="63.97" gradientTransform="matrix(-1, 0, 0, 1, 67.53, 0)" gradientUnits="userSpaceOnUse"><stop offset="0" stop-color="#eddce2"/><stop offset="1" stop-color="#c3317c"/></linearGradient></defs><g class="cls-2"><g id="Layer_2" data-name="Layer 2"><g id="Layer_1-2" data-name="Layer 1"><g id="Lamp"><g class="cls-3"><rect class="cls-4" x="27.74" y="51.85" width="11.3" height="13.67"/><path class="cls-4" d="M53,58.69A19.46,19.46,0,0,1,33.39,78a19.28,19.28,0,1,1,0-38.56A19.46,19.46,0,0,1,53,58.69Z"/><path class="cls-5" d="M52.74,58.69a19.17,19.17,0,0,1-19.35,19,19,19,0,1,1,0-38A19.17,19.17,0,0,1,52.74,58.69Z"/><path class="cls-6" d="M52.44,58.69a18.87,18.87,0,0,1-19,18.68,18.69,18.69,0,1,1,0-37.37A18.87,18.87,0,0,1,52.44,58.69Z"/><ellipse class="cls-7" cx="33.39" cy="58.69" rx="18.74" ry="18.39"/><path class="cls-8" d="M51.83,58.69A18.26,18.26,0,0,1,33.39,76.78a18.1,18.1,0,1,1,0-36.19A18.27,18.27,0,0,1,51.83,58.69Z"/><path class="cls-9" d="M51.53,58.69A18,18,0,0,1,33.39,76.48a17.8,17.8,0,1,1,0-35.59A18,18,0,0,1,51.53,58.69Z"/><path class="cls-10" d="M51.23,58.69a17.84,17.84,0,1,1-17.84-17.5A17.68,17.68,0,0,1,51.23,58.69Z"/><path class="cls-11" d="M50.93,58.69A17.54,17.54,0,1,1,33.39,41.48,17.37,17.37,0,0,1,50.93,58.69Z"/><path class="cls-12" d="M50.63,58.69A17.24,17.24,0,1,1,33.39,41.78,17.08,17.08,0,0,1,50.63,58.69Z"/><path class="cls-13" d="M50.32,58.69A16.93,16.93,0,1,1,33.39,42.08,16.77,16.77,0,0,1,50.32,58.69Z"/><path class="cls-14" d="M50,58.69A16.63,16.63,0,1,1,33.39,42.37,16.47,16.47,0,0,1,50,58.69Z"/><path class="cls-15" d="M49.72,58.69a16.33,16.33,0,1,1-16.33-16A16.17,16.17,0,0,1,49.72,58.69Z"/><path class="cls-16" d="M49.42,58.69A16,16,0,1,1,33.39,43,15.88,15.88,0,0,1,49.42,58.69Z"/><path class="cls-17" d="M49.11,58.69A15.72,15.72,0,1,1,33.39,43.26,15.56,15.56,0,0,1,49.11,58.69Z"/><path class="cls-18" d="M48.81,58.69A15.42,15.42,0,1,1,33.39,43.56,15.27,15.27,0,0,1,48.81,58.69Z"/><path class="cls-19" d="M48.51,58.69A15.12,15.12,0,1,1,33.39,43.86,15,15,0,0,1,48.51,58.69Z"/><path class="cls-20" d="M48.21,58.69A14.82,14.82,0,1,1,33.39,44.15,14.68,14.68,0,0,1,48.21,58.69Z"/><path class="cls-21" d="M47.9,58.69A14.51,14.51,0,1,1,33.39,44.45,14.37,14.37,0,0,1,47.9,58.69Z"/><path class="cls-22" d="M47.6,58.69A14.21,14.21,0,1,1,33.39,44.75,14.07,14.07,0,0,1,47.6,58.69Z"/><path class="cls-23" d="M47.3,58.69A13.91,13.91,0,1,1,33.39,45,13.78,13.78,0,0,1,47.3,58.69Z"/><path class="cls-24" d="M47,58.69A13.61,13.61,0,1,1,33.39,45.34,13.47,13.47,0,0,1,47,58.69Z"/><path class="cls-25" d="M46.7,58.69a13.31,13.31,0,1,1-13.31-13A13.19,13.19,0,0,1,46.7,58.69Z"/><path class="cls-26" d="M46.39,58.69a13,13,0,1,1-13-12.76A12.88,12.88,0,0,1,46.39,58.69Z"/><path class="cls-27" d="M46.09,58.69a12.7,12.7,0,1,1-12.7-12.46A12.57,12.57,0,0,1,46.09,58.69Z"/><path class="cls-28" d="M45.79,58.69a12.4,12.4,0,1,1-12.4-12.16A12.28,12.28,0,0,1,45.79,58.69Z"/><path class="cls-29" d="M45.49,58.69a12.1,12.1,0,1,1-12.1-11.87A12,12,0,0,1,45.49,58.69Z"/><path class="cls-30" d="M45.18,58.69A11.79,11.79,0,1,1,33.39,47.12,11.68,11.68,0,0,1,45.18,58.69Z"/><path class="cls-31" d="M44.88,58.69A11.49,11.49,0,1,1,33.39,47.42,11.38,11.38,0,0,1,44.88,58.69Z"/><path class="cls-32" d="M44.58,58.69a11.19,11.19,0,1,1-11.19-11A11.08,11.08,0,0,1,44.58,58.69Z"/><path class="cls-33" d="M44.28,58.69A10.89,10.89,0,1,1,33.39,48,10.79,10.79,0,0,1,44.28,58.69Z"/><path class="cls-34" d="M44,58.69A10.58,10.58,0,1,1,33.39,48.3,10.48,10.48,0,0,1,44,58.69Z"/><path class="cls-35" d="M43.67,58.69A10.28,10.28,0,1,1,33.39,48.6,10.18,10.18,0,0,1,43.67,58.69Z"/><path class="cls-36" d="M43.37,58.69a10,10,0,1,1-10-9.79A9.89,9.89,0,0,1,43.37,58.69Z"/><path class="cls-37" d="M43.07,58.69a9.68,9.68,0,1,1-9.68-9.5A9.58,9.58,0,0,1,43.07,58.69Z"/><ellipse class="cls-38" cx="33.39" cy="58.69" rx="9.37" ry="9.2"/><path class="cls-39" d="M42.46,58.69a9.07,9.07,0,1,1-9.07-8.9A9,9,0,0,1,42.46,58.69Z"/><path class="cls-40" d="M42.16,58.69a8.77,8.77,0,1,1-8.77-8.61A8.68,8.68,0,0,1,42.16,58.69Z"/><path class="cls-41" d="M41.86,58.69a8.47,8.47,0,1,1-8.47-8.31A8.39,8.39,0,0,1,41.86,58.69Z"/><path class="cls-42" d="M41.56,58.69a8.17,8.17,0,1,1-8.17-8A8.1,8.1,0,0,1,41.56,58.69Z"/><path class="cls-43" d="M41.25,58.69A7.86,7.86,0,1,1,33.39,51,7.79,7.79,0,0,1,41.25,58.69Z"/><path class="cls-44" d="M41,58.69a7.56,7.56,0,1,1-7.56-7.42A7.48,7.48,0,0,1,41,58.69Z"/><path class="cls-45" d="M40.65,58.69a7.26,7.26,0,1,1-7.26-7.12A7.19,7.19,0,0,1,40.65,58.69Z"/><path class="cls-46" d="M40.35,58.69a7,7,0,1,1-7-6.83A6.9,6.9,0,0,1,40.35,58.69Z"/><path class="cls-47" d="M40,58.69a6.65,6.65,0,1,1-6.65-6.53A6.58,6.58,0,0,1,40,58.69Z"/><path class="cls-48" d="M39.74,58.69a6.35,6.35,0,1,1-6.35-6.23A6.29,6.29,0,0,1,39.74,58.69Z"/><path class="cls-49" d="M39.44,58.69a6,6,0,1,1-6-5.94A6,6,0,0,1,39.44,58.69Z"/><path class="cls-50" d="M39.14,58.69a5.75,5.75,0,1,1-5.75-5.64A5.69,5.69,0,0,1,39.14,58.69Z"/><path class="cls-51" d="M38.84,58.69a5.45,5.45,0,1,1-5.45-5.34A5.4,5.4,0,0,1,38.84,58.69Z"/><path class="cls-52" d="M38.53,58.69a5.14,5.14,0,1,1-5.14-5A5.09,5.09,0,0,1,38.53,58.69Z"/><path class="cls-53" d="M38.23,58.69a4.84,4.84,0,1,1-4.84-4.75A4.78,4.78,0,0,1,38.23,58.69Z"/><path class="cls-54" d="M37.93,58.69a4.54,4.54,0,1,1-4.54-4.45A4.5,4.5,0,0,1,37.93,58.69Z"/><path class="cls-55" d="M37.63,58.69a4.24,4.24,0,1,1-4.24-4.16A4.2,4.2,0,0,1,37.63,58.69Z"/><path class="cls-56" d="M37.32,58.69a3.93,3.93,0,1,1-3.93-3.86A3.89,3.89,0,0,1,37.32,58.69Z"/><path class="cls-57" d="M37,58.69a3.63,3.63,0,1,1-3.63-3.56A3.6,3.6,0,0,1,37,58.69Z"/><path class="cls-58" d="M36.72,58.69a3.33,3.33,0,1,1-3.33-3.27A3.3,3.3,0,0,1,36.72,58.69Z"/><path class="cls-59" d="M36.42,58.69a3,3,0,1,1-3-3A3,3,0,0,1,36.42,58.69Z"/><path class="cls-60" d="M36.11,58.69A2.72,2.72,0,1,1,33.39,56,2.69,2.69,0,0,1,36.11,58.69Z"/><path class="cls-61" d="M35.81,58.69a2.42,2.42,0,1,1-2.42-2.38A2.39,2.39,0,0,1,35.81,58.69Z"/><path class="cls-62" d="M35.51,58.69a2.12,2.12,0,1,1-2.12-2.08A2.1,2.1,0,0,1,35.51,58.69Z"/><path class="cls-63" d="M35.21,58.69a1.82,1.82,0,1,1-1.82-1.78A1.8,1.8,0,0,1,35.21,58.69Z"/><path class="cls-64" d="M34.91,58.69a1.52,1.52,0,1,1-1.52-1.49A1.5,1.5,0,0,1,34.91,58.69Z"/><path class="cls-65" d="M34.6,58.69a1.21,1.21,0,1,1-1.21-1.19A1.2,1.2,0,0,1,34.6,58.69Z"/><path class="cls-66" d="M34.3,58.69a.91.91,0,1,1-.91-.89A.9.9,0,0,1,34.3,58.69Z"/><path class="cls-67" d="M34,58.69a.61.61,0,1,1-.61-.6A.6.6,0,0,1,34,58.69Z"/><path class="cls-68" d="M33.7,58.69a.31.31,0,1,1-.31-.3A.3.3,0,0,1,33.7,58.69Z"/></g><path class="cls-69" d="M34.76,78.37l-.26-.06a4.58,4.58,0,0,1-2-1h0a1.23,1.23,0,0,1-.48-.94,28.65,28.65,0,0,1-5-7.7h0a10.1,10.1,0,0,1-.48-1.7,1.08,1.08,0,0,1,0-.19,5.4,5.4,0,0,1-.06-1.44c.4-4.55,12.83-3.94,14.25-1.68a1.8,1.8,0,0,1,.25.87C41.36,68.22,37.36,79,34.76,78.37Z"/><path class="cls-70" d="M27.13,64.69s3.27,7.55,4.56,8,.15-8.54.15-8.54Z"/><path class="cls-71" d="M34.76,78.37l-.26-.06c-.6-.31-1.29-.64-2-1h0a1.23,1.23,0,0,1-.48-.94,28.65,28.65,0,0,1-5-7.7h0L26.59,67l-.1-.37a1.2,1.2,0,0,0,.07.18c.48,1.24,3.07,7.56,5.62,7.46,2.83-.1,4.28-10.31,4.28-10.31l4.54.6C41.36,68.22,37.36,79,34.76,78.37Z"/><path class="cls-72" d="M42.74,108a70.12,70.12,0,0,0,0-7.94,66.11,66.11,0,0,0-.86-7.92,44.6,44.6,0,0,0-2-7.81,28.12,28.12,0,0,0-1.68-3.78A18.39,18.39,0,0,0,35.79,77a11.65,11.65,0,0,0-3.61-2.78,10.31,10.31,0,0,0-2.25-.77,9.43,9.43,0,0,0-1.17-.17l-.57,0h-.55a12.19,12.19,0,0,0-4.46.8,10.73,10.73,0,0,0-3.8,2.58,13.33,13.33,0,0,0-2.45,3.69,18.43,18.43,0,0,0-1.27,4,26.05,26.05,0,0,0-.25,8.21,26.38,26.38,0,0,0,.81,4,18.42,18.42,0,0,0,1.58,3.87,10.27,10.27,0,0,0,1.25,1.81,6.46,6.46,0,0,0,1.86,1.5,4.34,4.34,0,0,0,1.24.43l.17,0,.14,0,.3,0c.2,0,.4,0,.6,0a5.14,5.14,0,0,0,2.36-.63,5.53,5.53,0,0,0,1.77-1.58,7.85,7.85,0,0,0,1.05-2A10.93,10.93,0,0,0,29.17,96a10.47,10.47,0,0,0-.26-2.07,7.5,7.5,0,0,0-.74-2,4,4,0,0,0-1.55-1.63A2.85,2.85,0,0,0,25.49,90a3.33,3.33,0,0,0-1.14.09,2.64,2.64,0,0,0-1,.52,2.54,2.54,0,0,0-.68.93,4.35,4.35,0,0,0-.24,2.06,10.41,10.41,0,0,0,.38,1.94,14.3,14.3,0,0,0,.68,1.83,12.66,12.66,0,0,1-.54-3.78,3.77,3.77,0,0,1,.4-1.73A1.59,1.59,0,0,1,24.55,91a2.07,2.07,0,0,1,1.48.3,3,3,0,0,1,1,1.24A7.67,7.67,0,0,1,27.54,96a9.61,9.61,0,0,1-.79,3.43,4.51,4.51,0,0,1-2,2.32,2.89,2.89,0,0,1-1.37.26c-.12,0-.24,0-.36,0l-.19,0-.09,0-.07,0a2,2,0,0,1-.57-.25,6,6,0,0,1-1.94-2.42A16,16,0,0,1,19,95.88a24.1,24.1,0,0,1-.57-3.6,27.79,27.79,0,0,1,0-3.65,21.21,21.21,0,0,1,.51-3.56A15.05,15.05,0,0,1,20,81.78a9.85,9.85,0,0,1,1.87-2.7,7.6,7.6,0,0,1,5.72-2.17H28l.4,0a4.63,4.63,0,0,1,.73.12,5.9,5.9,0,0,1,1.41.49,8.3,8.3,0,0,1,2.45,2A14.43,14.43,0,0,1,35,82.34a25.61,25.61,0,0,1,1.45,3.29,43.84,43.84,0,0,1,1.85,7.17,66.41,66.41,0,0,1,.84,7.47,65.42,65.42,0,0,1,0,7.54,46,46,0,0,1-.91,7.38c-.11.52-.25,1-.4,1.54,1.19-.1,2.06.82,3.27,1.15.2-.63.38-1.27.54-1.9A48.54,48.54,0,0,0,42.74,108Z"/><path class="cls-73" d="M30.89,115.44a1.5,1.5,0,0,0-.94,0,1.53,1.53,0,0,0-1.06,1.88h0l.06.19,0,.15.1.28c.07.18.14.36.22.54l0,.08,0,0,2.36-2.35A1.5,1.5,0,0,0,30.89,115.44Z"/><path class="cls-74" d="M26.71,94.29c.44,2-.19,3.87-1.4,4.13s-2.55-1.15-3-3.17.18-3.87,1.4-4.13S26.27,92.27,26.71,94.29Z"/><path class="cls-70" d="M16.45,84.35s1-6.87,5.47-9.22S29,74.65,29,74.65s-4.52.68-7.12,2.59S16.45,84.35,16.45,84.35Z"/><path class="cls-75" d="M30.07,117a3,3,0,0,1,.28-.87,5.43,5.43,0,0,0,.54-.73,1.5,1.5,0,0,0-.94,0,1.53,1.53,0,0,0-1.06,1.88h0l.06.19,0,.15.1.28c.07.18.14.36.22.54l0,.08,0,0,.65-.65A4.4,4.4,0,0,1,30.07,117Z"/><path class="cls-75" d="M34.76,133.4h0v0Z"/><path class="cls-70" d="M25,93.94c0,1.16-.56,2.1-1.26,2.1s-1.26-.94-1.26-2.1.56-2.1,1.26-2.1S25,92.78,25,93.94Z"/><polygon class="cls-76" points="63.53 51.98 2.69 51.98 3.04 50.37 13.36 2.37 13.87 0 51.21 0 51.92 2.99 63.15 50.37 63.53 51.98"/><path class="cls-77" d="M15.54,1.34,3.34,50.14l-.3.23L2.69,52H12.82L18.38,0ZM41,52,38.26,0H36.47l2.64,50.23L25.92,48.32,29.09,0H27.34L24.13,49.87,38.8,52,41,52.3Zm22.16-1.61H54L48.65,0h-1.8l5.47,52H63.53Z"/><polygon class="cls-78" points="51.92 2.99 13.35 2.36 13.86 0 51.21 0 51.92 2.99"/><polygon class="cls-78" points="0 55.06 66.23 56.22 63.15 48.52 3.12 47.27 0 55.06"/><polygon class="cls-79" points="60.62 54.83 48.29 55.21 47.79 49.65 58.29 49.19 60.62 54.83"/><polygon class="cls-79" points="37.31 2.17 45.84 2.19 46.32 0.6 37.77 0.41 37.31 2.17"/></g></g></g></g></svg>