<svg xmlns="http://www.w3.org/2000/svg" viewBox="0 0 227.55 227.82"><defs><style>.cls-1{isolation:isolate;}.cls-2{fill:#fff;}.cls-3{fill:#e4ecf2;}.cls-4,.cls-5{fill:#d6dbe9;}.cls-5,.cls-6{mix-blend-mode:multiply;}.cls-5{opacity:0.35;}.cls-6{fill:#e3e6e6;}</style></defs><g class="cls-1"><g id="Layer_2" data-name="Layer 2"><g id="Layer_1-2" data-name="Layer 1"><g id="Fan_head" data-name="Fan head"><rect class="cls-2" x="2.57" y="111.5" width="222.67" height="4.85" transform="translate(-47.17 111.08) rotate(-43.99)"/><rect class="cls-2" x="2.57" y="111.49" width="222.67" height="4.85" transform="translate(-43.08 77.78) rotate(-32.04)"/><rect class="cls-2" x="2.57" y="111.49" width="222.67" height="4.85" transform="translate(-32.05 45.73) rotate(-19.96)"/><rect class="cls-2" x="2.57" y="111.49" width="222.67" height="4.85" transform="translate(-14.78 17.01) rotate(-8.02)"/><rect class="cls-2" x="111.48" y="2.59" width="4.86" height="222.67" transform="translate(-7.67 219.62) rotate(-86.01)"/><rect class="cls-2" x="111.48" y="2.58" width="4.85" height="222.67" transform="translate(-26.99 192.03) rotate(-74.01)"/><rect class="cls-2" x="111.48" y="2.58" width="4.85" height="222.67" transform="translate(-40.15 161.03) rotate(-62.01)"/><rect class="cls-2" x="111.48" y="2.59" width="4.85" height="222.67" transform="translate(-46.31 130.72) rotate(-50.99)"/><rect class="cls-2" x="111.48" y="2.59" width="4.85" height="222.67" transform="translate(-46.31 97.05) rotate(-38.99)"/><rect class="cls-2" x="111.48" y="2.58" width="4.85" height="222.67" transform="translate(-39.3 64.11) rotate(-26.99)"/><rect class="cls-2" x="111.48" y="2.59" width="4.85" height="222.67" transform="translate(-25.59 33.34) rotate(-14.99)"/><polygon class="cls-2" points="117.29 225.24 105.67 2.86 110.52 2.61 122.14 224.98 117.29 225.24"/><rect class="cls-2" x="2.57" y="111.5" width="222.67" height="4.85" transform="translate(-16.37 208.69) rotate(-81.04)"/><rect class="cls-2" x="2.57" y="111.5" width="222.67" height="4.85" transform="translate(-33.29 179.39) rotate(-68.98)"/><rect class="cls-2" x="2.57" y="111.5" width="222.67" height="4.85" transform="matrix(0.54, -0.84, 0.84, 0.54, -43.67, 147.42)"/><path class="cls-3" d="M105.91,121.78l-10.28,6.43-7,6.75a32.68,32.68,0,0,0,3.49,3.37l8.13-7.86Z"/><path class="cls-3" d="M121.91,106.06l10.28-6.43,8.57-8.28a33.69,33.69,0,0,0-3.21-3.64l-10,9.65Z"/><path class="cls-3" d="M104,120.1l-11,4-8.52,5.33a33.42,33.42,0,0,0,2.76,4l8.34-5.21Z"/><path class="cls-3" d="M123.79,107.74l11-4,9.81-6.13a33.15,33.15,0,0,0-2.36-4.25l-10,6.26Z"/><path class="cls-3" d="M102.94,117.92l-11.55,1.62L81.6,123.1a33.45,33.45,0,0,0,1.9,4.48l9.55-3.49Z"/><path class="cls-3" d="M124.87,109.93l11.55-1.63,10.52-3.83a33.2,33.2,0,0,0-1.42-4.64l-10.76,3.92Z"/><path class="cls-3" d="M125.46,112.3l11.64.81,10.69-1.51a33.62,33.62,0,0,0-.43-4.84l-10.94,1.54Z"/><path class="cls-3" d="M102.35,115.55l-11.64-.81L80,116.24A34,34,0,0,0,81,121l10.43-1.46Z"/><path class="cls-3" d="M102.27,113.11l-11.22-3.22-11.17-.78c-.08,1-.15,2-.15,3,0,.64.06,1.28.1,1.92l10.88.76Z"/><path class="cls-3" d="M125.54,114.73,136.76,118l10.4.73a35,35,0,0,0,.57-4.83l-10.63-.74Z"/><path class="cls-3" d="M125.12,117.14l10.3,5.47,9.69,2.77a34,34,0,0,0,1.54-4.6L136.76,118Z"/><path class="cls-3" d="M102.69,110.71l-10.3-5.48L81.23,102a33.58,33.58,0,0,0-1,4.74l10.87,3.11Z"/><path class="cls-3" d="M124.69,119.53,135,127.87l6.75,3.59a34.37,34.37,0,0,0,2.47-4.19l-8.78-4.66Z"/><path class="cls-3" d="M103.12,108.31,92.83,100l-8.7-4.62a35.25,35.25,0,0,0-2.07,4.39l10.33,5.49Z"/><path class="cls-3" d="M104.52,106.18l-7-8.68L88,89.83a33.7,33.7,0,0,0-2.9,3.9L92.83,100Z"/><path class="cls-3" d="M123.29,121.65l7,8.68,7.35,6a33.74,33.74,0,0,0,3.18-3.67L135,127.87Z"/><path class="cls-3" d="M106.57,104.85l-5.3-10.39-7.82-9.67a36,36,0,0,0-3.7,3.15l7.74,9.56Z"/><path class="cls-3" d="M121.25,123l5.29,10.39,5.81,7.18a33.3,33.3,0,0,0,3.86-2.94l-5.89-7.29Z"/><path class="cls-3" d="M119.2,124.31l3,11.27,4.12,8.1a33.76,33.76,0,0,0,4.36-2.12l-4.16-8.18Z"/><path class="cls-3" d="M108.61,103.53l-3-11.27L99.86,81a35.77,35.77,0,0,0-4.27,2.3l5.68,11.15Z"/><path class="cls-3" d="M110.89,102.65,110.28,91,107,78.69A34.61,34.61,0,0,0,102.32,80l3.27,12.23Z"/><path class="cls-3" d="M116.92,125.19l.62,11.66,2.32,8.67a33.33,33.33,0,0,0,4.7-1.19l-2.34-8.75Z"/><path class="cls-3" d="M113.3,102.27l1.83-11.53-.67-12.69c-.23,0-.45,0-.69,0a35.42,35.42,0,0,0-4.15.27L110.28,91Z"/><path class="cls-3" d="M114.51,125.57l-1.82,11.52.47,9c.2,0,.4,0,.61,0a34.66,34.66,0,0,0,4.23-.29l-.46-9Z"/><path class="cls-3" d="M115.73,102.39l4.18-10.88,2-12.48a34,34,0,0,0-4.77-.85l-2,12.56Z"/><path class="cls-3" d="M112.08,125.44l-4.18,10.89-1.42,9a34.24,34.24,0,0,0,4.8.67l1.41-8.88Z"/><path class="cls-3" d="M109.72,124.82l-6.36,9.79-3.3,8.59a35,35,0,0,0,4.58,1.63l3.26-8.5Z"/><path class="cls-3" d="M118.09,103l6.35-9.79,4.48-11.64a33.94,33.94,0,0,0-4.49-1.86l-4.52,11.77Z"/><path class="cls-3" d="M120.1,104.57l7.46-7.21,7.63-11.75a33.3,33.3,0,0,0-4-2.76l-6.76,10.39Z"/><path class="cls-3" d="M107.72,123.27l-7.46,7.2-6.09,9.38a32.93,32.93,0,0,0,4.15,2.51l5-7.75Z"/><circle class="cls-4" cx="113.77" cy="112.06" r="31.14"/><path class="cls-5" d="M139,114.38a25.25,25.25,0,1,1-25.25-25.25A25.24,25.24,0,0,1,139,114.38Z"/><path class="cls-2" d="M139,112.06a25.25,25.25,0,1,1-25.25-25.25A25.25,25.25,0,0,1,139,112.06Z"/><path class="cls-4" d="M113.77,0A113.78,113.78,0,1,0,227.55,113.77,113.9,113.9,0,0,0,113.77,0Zm0,216.07a102.3,102.3,0,1,1,102.3-102.3A102.41,102.41,0,0,1,113.77,216.07Z"/><path class="cls-3" d="M44.08,178l-7.72,7.46c1.09,1.19,2.22,2.35,3.37,3.48l7.68-7.42C46.26,180.39,45.18,179.19,44.08,178Z"/><path class="cls-3" d="M183.73,49.84l7.73-7.47q-1.64-1.78-3.36-3.49l-7.67,7.41C181.58,47.42,182.64,48.65,183.73,49.84Z"/><path class="cls-3" d="M195.52,65.76l9.1-5.68Q203.39,58,202.05,56L193,61.62C193.89,63,194.7,64.37,195.52,65.76Z"/><path class="cls-3" d="M32.23,162.11l-9.11,5.7q1.24,2.08,2.59,4.1l9-5.65C33.85,164.91,33.06,163.5,32.23,162.11Z"/><path class="cls-3" d="M203.77,83.78l10-3.66c-.52-1.53-1.07-3.06-1.66-4.56L202.1,79.23C202.69,80.73,203.25,82.24,203.77,83.78Z"/><path class="cls-3" d="M23.91,144.11l-10.06,3.66q.78,2.31,1.67,4.55l10.06-3.66C25,147.16,24.43,145.65,23.91,144.11Z"/><path class="cls-3" d="M208.06,103.12l10.57-1.49q-.27-2.41-.66-4.8l-10.64,1.5C207.59,99.92,207.88,101.51,208.06,103.12Z"/><path class="cls-3" d="M19.54,124.75,9,126.24c.19,1.61.41,3.21.67,4.8l10.64-1.49C20,128,19.72,126.37,19.54,124.75Z"/><path class="cls-3" d="M208.24,122.94l10.63.74c.15-1.61.27-3.22.35-4.84l-10.74-.75C208.41,119.71,208.39,121.34,208.24,122.94Z"/><path class="cls-3" d="M19.3,104.89l-10.64-.75c-.15,1.61-.27,3.22-.34,4.84l10.73.75C19.12,108.11,19.15,106.48,19.3,104.89Z"/><path class="cls-3" d="M23.19,85.4,12.94,82.46q-.72,2.31-1.33,4.67l10.35,3C22.37,88.53,22.71,86.93,23.19,85.4Z"/><path class="cls-3" d="M204.29,142.35l10.26,2.93q.72-2.31,1.33-4.66l-10.34-3C205.13,139.22,204.77,140.81,204.29,142.35Z"/><path class="cls-3" d="M196.32,160.47l9.44,5c.8-1.41,1.56-2.83,2.29-4.28l-9.47-5C197.85,157.63,197.12,159.07,196.32,160.47Z"/><path class="cls-3" d="M31.16,67.19l-9.44-5c-.8,1.41-1.55,2.84-2.28,4.29l9.47,5C29.64,70,30.36,68.6,31.16,67.19Z"/><path class="cls-3" d="M185.88,175.34l8.31,6.74c1.05-1.24,2.07-2.49,3.06-3.77l-8.34-6.75C187.92,172.84,186.93,174.12,185.88,175.34Z"/><path class="cls-3" d="M41.63,52.25l-8.31-6.73c-1,1.23-2.06,2.49-3.05,3.77L38.6,56C39.59,54.76,40.57,53.48,41.63,52.25Z"/><path class="cls-3" d="M56.05,38.6,49.3,30.26q-1.92,1.48-3.77,3.05l6.73,8.31C53.48,40.57,54.76,39.58,56.05,38.6Z"/><path class="cls-3" d="M171.52,189l6.75,8.33c1.28-1,2.53-2,3.77-3.06l-6.73-8.3C174.08,187,172.8,188,171.52,189Z"/><path class="cls-3" d="M154.68,199.31l4.88,9.59q2.19-1.07,4.31-2.21l-4.83-9.5C157.62,198,156.13,198.61,154.68,199.31Z"/><path class="cls-3" d="M73,28.2l-4.89-9.59q-2.19,1-4.32,2.21l4.84,9.49C70,29.54,71.51,28.9,73,28.2Z"/><path class="cls-3" d="M136,206l2.78,10.38q2.35-.59,4.68-1.26l-2.76-10.32C139.19,205.2,137.61,205.57,136,206Z"/><path class="cls-3" d="M91.68,21.55,88.9,11.18c-1.57.38-3.13.81-4.68,1.26L87,22.76C88.53,22.31,90.1,21.93,91.68,21.55Z"/><path class="cls-3" d="M116.42,208.57l.56,10.7c1.63-.05,3.24-.14,4.85-.25l-.56-10.7C119.66,208.45,118.05,208.52,116.42,208.57Z"/><path class="cls-3" d="M111.38,19l-.56-10.7c-1.63.05-3.24.13-4.85.25l.56,10.7C108.13,19.1,109.75,19,111.38,19Z"/><path class="cls-3" d="M131.17,20.52,132.84,10c-1.58-.29-3.18-.55-4.79-.77l-1.67,10.59C128,20,129.59,20.23,131.17,20.52Z"/><path class="cls-3" d="M96.68,207.07,95,217.65q2.39.42,4.8.75l1.67-10.59C99.87,207.6,98.26,207.36,96.68,207.07Z"/><path class="cls-3" d="M150.21,26.15l3.83-10c-1.5-.61-3-1.2-4.53-1.76l-3.85,10.05C147.18,25,148.73,25.53,150.21,26.15Z"/><path class="cls-3" d="M77.66,201.52l-3.82,10q2.23.93,4.53,1.74l3.85-10C80.69,202.65,79.15,202.14,77.66,201.52Z"/><path class="cls-3" d="M167.62,35.69l5.82-8.95c-1.33-.92-2.69-1.81-4.06-2.66l-5.86,9C164.9,33.94,166.29,34.77,167.62,35.69Z"/><path class="cls-3" d="M60.23,192.09,54.42,201q2,1.38,4.07,2.65l5.86-9C63,193.81,61.57,193,60.23,192.09Z"/><path class="cls-2" d="M113.77,3.06A110.72,110.72,0,1,0,224.49,113.77,110.84,110.84,0,0,0,113.77,3.06Zm0,210.27a99.55,99.55,0,1,1,99.56-99.56A99.67,99.67,0,0,1,113.77,213.33Z"/><path class="cls-2" d="M113.77,179A65.26,65.26,0,1,1,179,113.77,65.32,65.32,0,0,1,113.77,179Zm0-125.66a60.41,60.41,0,1,0,60.41,60.4A60.47,60.47,0,0,0,113.77,53.37Z"/><path class="cls-6" d="M198,37.33c-.54-.59-1.08-1.17-1.63-1.75A113.49,113.49,0,0,0,113.77,0h-.52V14.26a4.53,4.53,0,0,1,.52,0,101,101,0,0,1,13.33,1l-.73,4.56-4.64,29.27a65.28,65.28,0,0,0-8-.53l-.52,0v4.85l.52,0a60.88,60.88,0,0,1,7.2.47L117.43,76.2A46.92,46.92,0,0,0,114,68.56l-.72-13.72V205.38c1-.1,2-.23,3-.43l.43,8.23c-1,0-1.91.15-2.89.15-.17,0-.34,0-.52,0v14.51H114a112.71,112.71,0,0,0,13.45-.8v-.32A113.7,113.7,0,0,0,198,37.33ZM137.55,87.71l-2.1,2c-.59-.58-1.2-1.15-1.85-1.68l1.59-2.44,13.61-21a59.54,59.54,0,0,1,6.55,5.41c-.39.5-.78,1-1.14,1.54Zm10.53-3.43a57.49,57.49,0,0,1-3.86,7.83l-2,1.26-2.46,1.53c-.34-.52-.72-1-1.1-1.52l2.1-2Zm4.79,81.62,21.56,26.63a99.17,99.17,0,0,1-13.29,8.78l-2.1-4.12-13.49-26.47A65.1,65.1,0,0,0,152.87,165.9Zm-9.52.49L130.7,141.56,129.38,139l1.13-.68,1.84,2.27,17.47,21.58A63.24,63.24,0,0,1,143.35,166.39Zm10.24-7.3-17.38-21.47-1.83-2.26c.34-.3.68-.6,1-.91l23.67,19.17A64.17,64.17,0,0,1,153.59,159.09Zm-5.39-20.52a46.47,46.47,0,0,0,8.72,1l8.91,4.74a61.47,61.47,0,0,1-3.72,5.58Zm13-73.66a21.72,21.72,0,0,0-2.37,1.73,65.42,65.42,0,0,0-7.33-6l16.17-24.9,2.52-3.88a101.45,101.45,0,0,1,13.62,11.26l-3.33,3.22ZM201.52,84.6l6.58-2.4a98.3,98.3,0,0,1,3.8,15.48l-4.57.65-4.7.66A40.76,40.76,0,0,0,201.52,84.6ZM200,80a31.34,31.34,0,0,0-8.28-11.85l3.82-2.39,3.92-2.44a98.39,98.39,0,0,1,7,14.33Zm-4-20.25-3,1.87-5.56,3.47a28,28,0,0,0-16-3.38l12.28-11.87,3.32-3.21a99.72,99.72,0,0,1,9.87,12.54Zm-27.66,78.61c.23-.06.44-.17.66-.22-.27.62-.59,1.23-.89,1.84l-2.27-1.21C166.67,138.62,167.52,138.56,168.34,138.36Zm1.77,8.18,30.29,16.11a98.87,98.87,0,0,1-7.9,11.82l-.7-.57-25.92-21A64.39,64.39,0,0,0,170.11,146.54Zm28.47,9.64-26.19-13.92A62,62,0,0,0,175,136c.9-.39,1.74-.88,2.61-1.33l31.1,8.91a98.09,98.09,0,0,1-6.08,14.73Zm7-18.52-22.27-6.38a48,48,0,0,0,9.85-9.4l15.11,1.06,4.61.32A98.85,98.85,0,0,1,210,138.93Zm2.94-19.57-12.15-.85A45,45,0,0,0,201.75,104l10.89-1.53a102.61,102.61,0,0,1,.68,11.29c0,1.57-.16,3.09-.23,4.64ZM151.87,21.83A99.15,99.15,0,0,1,166,29.21L147.38,57.94a65.77,65.77,0,0,0-7.81-4.08l10.64-27.71ZM144.74,62,131.19,82.85l-1.57,2.43c-.57-.34-1.15-.66-1.75-1l10-25.93A62.93,62.93,0,0,1,144.74,62ZM139,168.58c-1.06.49-2.12.95-3.21,1.38a51.13,51.13,0,0,0-7.14-10.27l-4.87-18.17,1.21-.44,1.33,2.6Zm-1.57,5.94c1.28-.5,2.53-1,3.77-1.62l15.55,30.52a100.12,100.12,0,0,1-14.84,5.79l-.23-.87-1-3.59-4.46-16.65A22.83,22.83,0,0,0,137.45,174.52Zm40.77,15-2.91-3.59-18.67-23.06a67,67,0,0,0,6.19-6.19l26.64,21.59A101.28,101.28,0,0,1,178.22,189.51ZM131.89,16a97.17,97.17,0,0,1,15.42,4.21l-1.66,4.31L135,52.14a65.44,65.44,0,0,0-8.5-2.35Zm-6.12,38.61a61,61,0,0,1,7.52,2.1l-8.86,23.07-1,2.71c-.64-.21-1.3-.38-2-.55Zm-4.25,148.81a27.08,27.08,0,0,0,11.38-9.14l3.3,12.3,1,3.87a98,98,0,0,1-15.72,2.52l-.24-4.61-.25-4.78C121.18,203.47,121.35,203.45,121.52,203.38Zm-2.42-60.67.76,2.81.74,2.78a30.19,30.19,0,0,1-2.08-5.5Z"/></g></g></g></g></svg>