<svg xmlns="http://www.w3.org/2000/svg" xmlns:xlink="http://www.w3.org/1999/xlink" viewBox="0 0 271.97 361.62"><defs><style>.cls-1{isolation:isolate;}.cls-2,.cls-6{mix-blend-mode:multiply;}.cls-2{opacity:0.5;fill:url(#Áåçûìÿííûé_ãðàäèåíò_107);}.cls-3{fill:#fff;}.cls-4{fill:#e4ecf2;}.cls-5{fill:#858c99;}.cls-6{fill:#e3e6e6;}</style><linearGradient id="Áåçûìÿííûé_ãðàäèåíò_107" x1="-99.42" y1="326.82" x2="258.84" y2="351.49" gradientTransform="matrix(1, -0.04, 0.03, 0.74, -9.76, 100.43)" gradientUnits="userSpaceOnUse"><stop offset="0" stop-color="#fcb35b"/><stop offset="0.05" stop-color="#eca45b"/><stop offset="0.23" stop-color="#b7735a"/><stop offset="0.41" stop-color="#8a4a59"/><stop offset="0.58" stop-color="#682a58"/><stop offset="0.73" stop-color="#4f1357"/><stop offset="0.88" stop-color="#400557"/><stop offset="1" stop-color="#3b0057"/></linearGradient></defs><g class="cls-1"><g id="Layer_2" data-name="Layer 2"><g id="Layer_1-2" data-name="Layer 1"><path id="Shadow" class="cls-2" d="M182.54,336.05c-38.07,1.49-70.41,6.15-82.91,11.39L0,351.36l.35,8.85L100,356.29c12.87,4.25,45.48,6.35,83.55,4.85,49.11-1.93,88.71-9.11,88.43-16S231.65,334.12,182.54,336.05Z"/><g id="Fan_Body" data-name="Fan Body"><rect class="cls-3" x="190.79" y="119.27" width="11.28" height="91.23"/><rect class="cls-4" x="190.79" y="119.27" width="11.28" height="44.48"/><path class="cls-3" d="M210.14,290H183V215.76a5.25,5.25,0,0,1,5.26-5.26h16.64a5.26,5.26,0,0,1,5.26,5.26Z"/><path class="cls-3" d="M199.8,280.7l-5.5,9.2,53.13,31.73a7.83,7.83,0,0,1,3.81,6.72V342.1h8.7V320.89a7.84,7.84,0,0,0-3.83-6.74Z"/><rect class="cls-3" x="190.79" y="283.58" width="11.28" height="57.92"/><rect class="cls-3" x="191.89" width="10" height="116"/><path class="cls-5" d="M266.91,345.55H244.27v-7.66a3.67,3.67,0,0,1,3.67-3.68h15.3a3.67,3.67,0,0,1,3.67,3.68Z"/><path class="cls-5" d="M207.75,345.55H185.11v-7.66a3.67,3.67,0,0,1,3.67-3.68h15.29a3.68,3.68,0,0,1,3.68,3.68Z"/><path class="cls-3" d="M193.06,280.7l5.49,9.2-53.12,31.73a7.81,7.81,0,0,0-3.82,6.72V342.1h-8.69V320.89a7.82,7.82,0,0,1,3.83-6.74Z"/><path class="cls-5" d="M125.94,345.55h22.65v-7.66a3.68,3.68,0,0,0-3.67-3.68h-15.3a3.68,3.68,0,0,0-3.68,3.68Z"/><path class="cls-3" d="M189.86,102.65a22.7,22.7,0,0,1-7.14-3.48v37.15a13.58,13.58,0,0,0,13.57,13.58h.27a13.58,13.58,0,0,0,13.58-13.58V98.94A24.19,24.19,0,0,1,189.86,102.65Z"/><path class="cls-4" d="M201.11,102.9a23.31,23.31,0,0,1-10.31-.05c-2.72-.15-5.42-.39-8.08-.74v11.65a115,115,0,0,0,13.71.85,115,115,0,0,0,13.71-.85V102.11C207.16,102.51,204.15,102.76,201.11,102.9Z"/><path class="cls-6" d="M266.9,337.89v7.66H244.26v-7.66a3.68,3.68,0,0,1,3.68-3.68h3.3v-5.86a7.81,7.81,0,0,0-3.82-6.72l-45.36-27.1v39.68h2a3.67,3.67,0,0,1,3.67,3.68v7.66H195.9V108.81h.78a112.71,112.71,0,0,0,13.45-.8v28.3a13.55,13.55,0,0,1-8.07,12.39V210.5h2.82a5.25,5.25,0,0,1,5.25,5.26v71.08l46,27.31a7.83,7.83,0,0,1,3.84,6.74v13.32h3.29A3.67,3.67,0,0,1,266.9,337.89Z"/></g></g></g></g></svg>