<svg xmlns="http://www.w3.org/2000/svg" xmlns:xlink="http://www.w3.org/1999/xlink" viewBox="0 0 118.51 336.94"><defs><style>.cls-1{isolation:isolate;}.cls-2,.cls-3,.cls-4,.cls-5,.cls-6,.cls-7{fill-rule:evenodd;}.cls-2{fill:url(#Áåçûìÿííûé_ãðàäèåíò_409);}.cls-3{fill:url(#Áåçûìÿííûé_ãðàäèåíò_409-2);}.cls-4{fill:#7f0e2d;}.cls-5{fill:#fff;}.cls-6{fill:url(#Áåçûìÿííûé_ãðàäèåíò_300);}.cls-7{fill:#ffd7d2;mix-blend-mode:screen;opacity:0.3;}</style><linearGradient id="Áåçûìÿííûé_ãðàäèåíò_409" x1="82.71" y1="107.6" x2="21.81" y2="149.87" gradientUnits="userSpaceOnUse"><stop offset="0" stop-color="#59355c"/><stop offset="0.98" stop-color="#1a0a23"/></linearGradient><linearGradient id="Áåçûìÿííûé_ãðàäèåíò_409-2" x1="140.17" y1="194.69" x2="80.77" y2="235.92" xlink:href="#Áåçûìÿííûé_ãðàäèåíò_409"/><radialGradient id="Áåçûìÿííûé_ãðàäèåíò_300" cx="59.26" cy="401.42" r="43.5" gradientTransform="translate(0 -471.65) scale(1 1.92)" gradientUnits="userSpaceOnUse"><stop offset="0" stop-color="#e0b8ca"/><stop offset="0.99" stop-color="#bc98bd"/></radialGradient></defs><g class="cls-1"><g id="Layer_2" data-name="Layer 2"><g id="Layer_1-2" data-name="Layer 1"><g id="Hang_Light" data-name="Hang Light"><path class="cls-2" d="M57.47,250.42,56.09,1A.94.94,0,0,1,57,0h0A.94.94,0,0,1,58,1l.44,249.15Z"/><path class="cls-3" d="M51.33,265c.36-4.88,2-24.91,2.4-29.21a1,1,0,0,1,.89-.86l7.31-.41a1,1,0,0,1,1,.82l3.83,29a1,1,0,0,1-.9,1.07L52.31,266A.93.93,0,0,1,51.33,265Z"/><path class="cls-4" d="M57.12,336.9c37-.8,54.83-3.47,60.62-4.54a1,1,0,0,0,.35-1.72l-58.32-39.5a1,1,0,0,0-1.05,0L.43,329.42a.94.94,0,0,0,.32,1.71C8.19,332.68,33.16,337.43,57.12,336.9Z"/><path class="cls-5" d="M56.8,333.62c34.69-.76,51.55-3,57.23-3.93a1,1,0,0,0,.37-1.72L59.33,290.68a.94.94,0,0,0-1,0L3.22,326.83a1,1,0,0,0,.34,1.72C10.81,330,34.28,334.11,56.8,333.62Z"/><path class="cls-6" d="M117.22,331.3c-12.28-2.6-64-12.16-115.92-1.24a1,1,0,0,1-.92-1.54L54.1,266.21a.94.94,0,0,1,.72-.33h8.85a.92.92,0,0,1,.72.34L72,275.14,106,315.4l12.13,14.36A1,1,0,0,1,117.22,331.3Z"/><path class="cls-7" d="M108.76,322.31l-36.85-8.66a1,1,0,0,1-.67-.59c-1.57-4.21-12.85-35.32-4.44-39.24,1.23-.57,3-.06,5,1.24a1.07,1.07,0,0,1,.23.2L106,315.36l.06.07c1.57,2.26,2.84,4.13,3.72,5.43A1,1,0,0,1,108.76,322.31Z"/><path class="cls-5" d="M75.45,285.5a21.74,21.74,0,0,0,4.18,4.95A1,1,0,0,0,81,289.12l-4-4.7A1,1,0,0,0,75.45,285.5Z"/></g></g></g></g></svg>